<svg width="72" height="119" viewBox="0 0 72 119" fill="none" xmlns="http://www.w3.org/2000/svg">
<rect x="0.5" y="0.5" width="71" height="118" rx="4.5" stroke="#7B61FF" stroke-dasharray="10 5"/>
<path fill-rule="evenodd" clip-rule="evenodd" d="M47.5911 39.1057C48.0514 37.388 48.1146 35.6574 47.837 34.0114C47.4655 35.2034 46.8023 36.2331 45.9471 37.0413L45.9462 37.0499C45.3061 37.6802 44.5516 38.1842 43.7221 38.5341C42.7902 38.9273 41.785 39.1169 40.7739 39.0903C39.7627 39.0638 38.7689 38.8216 37.8589 38.3801C36.9488 37.9386 36.1435 37.3078 35.4969 36.5301C34.8502 35.7523 34.377 34.8454 34.109 33.8701C33.841 32.8947 33.7843 31.8734 33.9428 30.8744C34.1012 29.8754 34.4711 28.9217 35.0277 28.0772C35.5469 27.2894 36.2174 26.6135 36.9995 26.0884C37.9969 25.3914 39.1693 24.9521 40.4057 24.8367C39.9857 24.6716 39.5521 24.5284 39.1058 24.4088C32.7042 22.6935 26.1242 26.4925 24.4089 32.8941C22.6936 39.2957 26.4926 45.8757 32.8942 47.591C39.2958 49.3063 45.8758 45.5073 47.5911 39.1057ZM45.0461 40.2663C43.0255 44.5635 38.1598 46.9314 33.4118 45.6592C28.0771 44.2298 24.9113 38.7464 26.3407 33.4117C27.3279 29.7276 30.2484 27.0779 33.7182 26.2617C33.5539 26.4696 33.3983 26.6848 33.252 26.9068C32.5287 28.0041 32.0481 29.2433 31.8422 30.5413C31.6364 31.8393 31.71 33.1663 32.0583 34.4336C32.4065 35.7009 33.0213 36.8792 33.8615 37.8898C34.7018 38.9003 35.7481 39.7199 36.9305 40.2935C38.1129 40.8672 39.4042 41.1819 40.718 41.2164C42.0318 41.2509 43.3378 41.0045 44.5487 40.4937C44.717 40.4227 44.8828 40.3469 45.0461 40.2663ZM45.8604 28.6141L45.336 27L44.8115 28.6141L43.1143 28.6141L44.4874 29.6117L43.9629 31.2258L45.336 30.2282L46.709 31.2258L46.1845 29.6117L47.5576 28.6141L45.8604 28.6141ZM39.336 27L39.8604 28.6141L41.5576 28.6141L40.1845 29.6117L40.709 31.2258L39.336 30.2282L37.9629 31.2258L38.4874 29.6117L37.1143 28.6141L38.8115 28.6141L39.336 27ZM42.8604 32.6141L42.336 31L41.8115 32.6141L40.1143 32.6141L41.4874 33.6117L40.9629 35.2258L42.336 34.2282L43.709 35.2258L43.1845 33.6117L44.5576 32.6141L42.8604 32.6141Z" fill="white"/>
<path fill-rule="evenodd" clip-rule="evenodd" d="M47.5911 86.1057C48.0514 84.388 48.1146 82.6574 47.837 81.0114C47.4655 82.2034 46.8023 83.2331 45.9471 84.0413L45.9462 84.0499C45.3061 84.6802 44.5516 85.1842 43.7221 85.5341C42.7902 85.9273 41.785 86.1169 40.7739 86.0903C39.7627 86.0638 38.7689 85.8216 37.8589 85.3801C36.9488 84.9386 36.1435 84.3078 35.4969 83.5301C34.8502 82.7523 34.377 81.8454 34.109 80.8701C33.841 79.8947 33.7843 78.8734 33.9428 77.8744C34.1012 76.8754 34.4711 75.9217 35.0277 75.0772C35.5469 74.2894 36.2174 73.6135 36.9995 73.0884C37.9969 72.3914 39.1693 71.9521 40.4057 71.8367C39.9857 71.6716 39.5521 71.5284 39.1058 71.4088C32.7042 69.6935 26.1242 73.4925 24.4089 79.8941C22.6936 86.2957 26.4926 92.8757 32.8942 94.591C39.2958 96.3063 45.8758 92.5073 47.5911 86.1057ZM45.0461 87.2663C43.0255 91.5635 38.1598 93.9314 33.4118 92.6592C28.0771 91.2298 24.9113 85.7464 26.3407 80.4117C27.3279 76.7276 30.2484 74.0779 33.7182 73.2617C33.5539 73.4696 33.3983 73.6848 33.252 73.9068C32.5287 75.0041 32.0481 76.2433 31.8422 77.5413C31.6364 78.8393 31.71 80.1663 32.0583 81.4336C32.4065 82.7009 33.0213 83.8792 33.8615 84.8898C34.7018 85.9003 35.7481 86.7199 36.9305 87.2935C38.1129 87.8672 39.4042 88.1819 40.718 88.2164C42.0318 88.2509 43.3378 88.0045 44.5487 87.4937C44.717 87.4227 44.8828 87.3469 45.0461 87.2663ZM45.8604 75.6141L45.336 74L44.8115 75.6141L43.1143 75.6141L44.4874 76.6117L43.9629 78.2258L45.336 77.2282L46.709 78.2258L46.1845 76.6117L47.5576 75.6141L45.8604 75.6141ZM39.336 74L39.8604 75.6141L41.5576 75.6141L40.1845 76.6117L40.709 78.2258L39.336 77.2282L37.9629 78.2258L38.4874 76.6117L37.1143 75.6141L38.8115 75.6141L39.336 74ZM42.8604 79.6141L42.336 78L41.8115 79.6141L40.1143 79.6141L41.4874 80.6117L40.9629 82.2258L42.336 81.2282L43.709 82.2258L43.1845 80.6117L44.5576 79.6141L42.8604 79.6141Z" fill="url(#paint0_linear_3_68)"/>
<defs>
<linearGradient id="paint0_linear_3_68" x1="39.1058" y1="71.4088" x2="32.8942" y2="94.591" gradientUnits="userSpaceOnUse">
<stop stop-color="#F5BD52"/>
<stop offset="1" stop-color="#F5DA79"/>
</linearGradient>
</defs>
</svg>
