<svg width="72" height="119" viewBox="0 0 72 119" fill="none" xmlns="http://www.w3.org/2000/svg">
<rect x="0.5" y="0.5" width="71" height="118" rx="4.5" stroke="#7B61FF" stroke-dasharray="10 5"/>
<path fill-rule="evenodd" clip-rule="evenodd" d="M37.6361 22V24.4351H39.6361V22H37.6361ZM50 32.3639H47.5649L47.5649 34.3639H50V32.3639ZM45.8687 28.0335L47.9775 26.8159L48.9775 28.548L46.8687 29.7656L45.8687 28.0335ZM43.4521 23.0225L42.2345 25.1313L43.9666 26.1313L45.1841 24.0225L43.4521 23.0225ZM33.3056 26.1313L32.0881 24.0225L33.8201 23.0225L35.0377 25.1313L33.3056 26.1313ZM50 42.75C50 39.7235 48.2095 37.1301 45.6657 36.0442C45.981 35.2109 46.1536 34.3075 46.1536 33.3638C46.1536 29.1797 42.7617 25.7878 38.5776 25.7878C36.3591 25.7878 34.3633 26.7414 32.9778 28.2611C32.8194 28.2537 32.6601 28.25 32.5 28.25C26.701 28.25 22 33.1189 22 39.125C22 45.1311 26.701 50 32.5 50C32.5658 50 32.6315 49.9994 32.6971 49.9981V50H42.9949L43 50L43.0051 50H43.2414V49.9958C46.9956 49.864 50 46.6704 50 42.75ZM44.1536 33.3638C44.1536 34.1349 43.9971 34.8693 43.7141 35.5373C43.4793 35.5126 43.2411 35.5 43 35.5C42.8017 35.5 42.6053 35.5085 42.4111 35.5253C41.3046 32.257 38.7337 29.702 35.5134 28.7045C36.3927 28.1251 37.4458 27.7878 38.5776 27.7878C41.6571 27.7878 44.1536 30.2843 44.1536 33.3638ZM32.5 48L32.5411 47.9999V48L32.6971 48L42.9973 48H43L43.0043 48C45.6983 47.9976 48 45.7147 48 42.75C48 39.7838 45.6958 37.5 43 37.5C42.2698 37.5 41.5684 37.6675 40.9337 37.9708C40.8474 37.2839 40.685 36.6218 40.4555 35.9939L40.4577 35.993C39.2369 32.6095 36.0973 30.25 32.5 30.25C27.8712 30.25 24 34.1567 24 39.125C24 44.0933 27.8712 48 32.5 48Z" fill="white"/>
<path d="M38.967 72.7979C42.9699 73.0008 46.1536 76.3109 46.1536 80.3643L46.1428 80.7539C46.0814 81.9642 45.7342 83.0986 45.1702 84.0938C44.5393 83.8119 43.8528 83.6334 43.1311 83.5791C43.774 82.6703 44.1535 81.562 44.1536 80.3643C44.1536 77.2848 41.6568 74.7882 38.5774 74.7881C36.621 74.7882 34.9006 75.7966 33.9055 77.3213C33.2167 77.1599 32.499 77.0723 31.761 77.0723C31.7581 77.0723 31.7551 77.0723 31.7522 77.0723C32.9772 74.5371 35.5732 72.7883 38.5774 72.7881L38.967 72.7979ZM50.0002 81.3643H47.5647V79.3643H50.0002V81.3643ZM48.9778 75.5479L46.8684 76.7656L45.8684 75.0342L47.9778 73.8164L48.9778 75.5479ZM35.0383 72.1318L33.3059 73.1318L32.0881 71.0225L33.8206 70.0225L35.0383 72.1318ZM45.1838 71.0225L43.9661 73.1318L42.2346 72.1318L43.4524 70.0225L45.1838 71.0225ZM39.636 71.4355H37.636V69H39.636V71.4355Z" fill="url(#paint0_linear_3_221)"/>
<path d="M32.5 75.25C37.0809 75.25 40.9737 78.2893 42.4082 82.5264C42.6032 82.5094 42.8008 82.5 43 82.5C46.8658 82.5003 50 85.7461 50 89.75C50 93.6703 46.9953 96.8612 43.2412 96.9932V97H32.6973V96.9961C32.6316 96.9973 32.5659 97 32.5 97C26.701 97 22 92.1311 22 86.125C22 80.1189 26.701 75.25 32.5 75.25ZM32.5 77.25C27.8712 77.25 24 81.1567 24 86.125C24 91.0933 27.8712 95 32.5 95C32.5137 95 32.5273 94.9991 32.541 94.999V95H42.9971V94.999L43 95C45.6957 94.9997 48 92.7161 48 89.75C48 86.7839 45.6957 84.5003 43 84.5C42.2688 84.5001 41.5661 84.6685 40.9307 84.9727C40.8444 84.2855 40.6836 83.6233 40.4541 82.9951C40.5398 82.9604 40.6265 82.9277 40.7139 82.8965C40.6272 82.9274 40.5411 82.9597 40.4561 82.9941C39.2354 79.6103 36.0974 77.25 32.5 77.25Z" fill="url(#paint1_linear_3_221)"/>
<path d="M38.967 72.7979C42.9699 73.0008 46.1536 76.3109 46.1536 80.3643L46.1428 80.7539C46.0814 81.9642 45.7342 83.0986 45.1702 84.0938C44.5393 83.8119 43.8528 83.6334 43.1311 83.5791C43.774 82.6703 44.1535 81.562 44.1536 80.3643C44.1536 77.2848 41.6568 74.7882 38.5774 74.7881C36.621 74.7882 34.9006 75.7966 33.9055 77.3213C33.2167 77.1599 32.499 77.0723 31.761 77.0723C31.7581 77.0723 31.7551 77.0723 31.7522 77.0723C32.9772 74.5371 35.5732 72.7883 38.5774 72.7881L38.967 72.7979ZM50.0002 81.3643H47.5647V79.3643H50.0002V81.3643ZM48.9778 75.5479L46.8684 76.7656L45.8684 75.0342L47.9778 73.8164L48.9778 75.5479ZM35.0383 72.1318L33.3059 73.1318L32.0881 71.0225L33.8206 70.0225L35.0383 72.1318ZM45.1838 71.0225L43.9661 73.1318L42.2346 72.1318L43.4524 70.0225L45.1838 71.0225ZM39.636 71.4355H37.636V69H39.636V71.4355Z" fill="url(#paint2_linear_3_221)"/>
<path d="M32.5 75.25C37.0809 75.25 40.9737 78.2893 42.4082 82.5264C42.6032 82.5094 42.8008 82.5 43 82.5C46.8658 82.5003 50 85.7461 50 89.75C50 93.6703 46.9953 96.8612 43.2412 96.9932V97H32.6973V96.9961C32.6316 96.9973 32.5659 97 32.5 97C26.701 97 22 92.1311 22 86.125C22 80.1189 26.701 75.25 32.5 75.25ZM32.5 77.25C27.8712 77.25 24 81.1567 24 86.125C24 91.0933 27.8712 95 32.5 95C32.5137 95 32.5273 94.9991 32.541 94.999V95H42.9971V94.999L43 95C45.6957 94.9997 48 92.7161 48 89.75C48 86.7839 45.6957 84.5003 43 84.5C42.2688 84.5001 41.5661 84.6685 40.9307 84.9727C40.8444 84.2855 40.6836 83.6233 40.4541 82.9951C40.5398 82.9604 40.6265 82.9277 40.7139 82.8965C40.6272 82.9274 40.5411 82.9597 40.4561 82.9941C39.2354 79.6103 36.0974 77.25 32.5 77.25Z" fill="url(#paint3_linear_3_221)"/>
<defs>
<linearGradient id="paint0_linear_3_221" x1="40.8762" y1="69" x2="40.8762" y2="84.0938" gradientUnits="userSpaceOnUse">
<stop stop-color="#EFC977"/>
<stop offset="1" stop-color="#E07256"/>
</linearGradient>
<linearGradient id="paint1_linear_3_221" x1="36" y1="75.25" x2="36" y2="97" gradientUnits="userSpaceOnUse">
<stop stop-color="#B2D4F7"/>
<stop offset="1" stop-color="#D9E2F3"/>
</linearGradient>
<linearGradient id="paint2_linear_3_221" x1="40.8762" y1="69" x2="40.8762" y2="84.0938" gradientUnits="userSpaceOnUse">
<stop stop-color="#EFC977"/>
<stop offset="1" stop-color="#E07256"/>
</linearGradient>
<linearGradient id="paint3_linear_3_221" x1="36" y1="75.25" x2="36" y2="97" gradientUnits="userSpaceOnUse">
<stop stop-color="#B2D4F7"/>
<stop offset="1" stop-color="#D9E2F3"/>
</linearGradient>
</defs>
</svg>
