<svg width="72" height="119" viewBox="0 0 72 119" fill="none" xmlns="http://www.w3.org/2000/svg">
<rect x="0.5" y="0.5" width="71" height="118" rx="4.5" stroke="#7B61FF" stroke-dasharray="10 5"/>
<path fill-rule="evenodd" clip-rule="evenodd" d="M45 43.7623C47.8796 42.9627 50 40.2381 50 37C50 35.5559 49.5783 34.2139 48.8556 33.0993C49.5798 31.9759 50.0001 30.6381 50.0001 29.2021C50.0001 25.2245 46.7756 22 42.798 22C41.0525 22 39.452 22.6209 38.2055 23.654C36.5808 22.6056 34.6627 22 32.6083 22C26.7495 22 22 26.9249 22 33C22 37.3628 24.4494 41.1323 28 42.9107V40.6003C25.6102 39.0152 24 36.2291 24 33C24 27.9605 27.9218 24 32.6083 24C36.5839 24 40.0091 26.85 40.9569 30.7911L40.9599 30.7899C41.0937 31.3367 41.1791 31.9037 41.2108 32.4855C41.8339 32.1732 42.5272 32 43.2493 32C45.8053 32 48 34.1696 48 37C48 39.1518 46.7314 40.9218 45 41.6467V43.7623ZM39.8221 24.9347C41.2318 26.2911 42.2853 28.04 42.821 30.0139C42.9626 30.0047 43.1054 30 43.2493 30C44.8393 30 46.301 30.57 47.4545 31.5237C47.8037 30.8249 48.0001 30.0364 48.0001 29.2021C48.0001 26.3291 45.671 24 42.798 24C41.6913 24 40.6653 24.3456 39.8221 24.9347ZM30.3609 40.9244C30.1533 41.4108 30.0009 41.9308 30.001 42.4091C30.0013 43.2877 30.6731 44 31.5015 44C32.33 44 33.0013 43.2877 33.001 42.4091C33.0009 41.9619 32.8327 41.4321 32.609 40.9252C32.1643 39.9175 31.5 39 31.5 39C31.5 39 30.8044 39.8856 30.3609 40.9244ZM35.001 42.4091C35.0009 41.9308 35.1533 41.4108 35.3609 40.9244C35.8044 39.8856 36.5 39 36.5 39C36.5 39 37.1643 39.9175 37.609 40.9252C37.8327 41.4321 38.0009 41.9619 38.001 42.4091C38.0013 43.2877 37.33 44 36.5015 44C35.6731 44 35.0013 43.2877 35.001 42.4091ZM33.2354 45.9244C33.0278 46.4108 32.8754 46.9308 32.8756 47.4091C32.8758 48.2877 33.5476 49 34.376 49C35.2045 49 35.8758 48.2877 35.8756 47.4091C35.8754 46.9619 35.7072 46.4321 35.4835 45.9252C35.0388 44.9175 34.3745 44 34.3745 44C34.3745 44 33.6789 44.8856 33.2354 45.9244ZM40.001 42.4091C40.0009 41.9308 40.1533 41.4108 40.3609 40.9244C40.8044 39.8856 41.5 39 41.5 39C41.5 39 42.1643 39.9175 42.609 40.9252C42.8327 41.4321 43.0009 41.9619 43.001 42.4091C43.0013 43.2877 42.33 44 41.5015 44C40.6731 44 40.0013 43.2877 40.001 42.4091ZM38.2503 45.9244C38.0427 46.4108 37.8903 46.9308 37.8905 47.4091C37.8907 48.2877 38.5625 49 39.3909 49C40.2194 49 40.8907 48.2877 40.8904 47.4091C40.8903 46.9619 40.7221 46.4321 40.4984 45.9252C40.0537 44.9175 39.3894 44 39.3894 44C39.3894 44 38.6938 44.8856 38.2503 45.9244Z" fill="white"/>
<path d="M43.1683 70.0098C46.9738 70.2025 50.0004 73.3488 50.0004 77.2021L49.9906 77.5723C49.9074 79.2157 49.2719 80.7129 48.2679 81.8848C47.9538 81.2541 47.548 80.6776 47.0668 80.1729C47.6542 79.3304 48.0004 78.307 48.0004 77.2021C48.0004 74.3292 45.6711 72.0001 42.7982 72C41.4838 72 40.2833 72.4879 39.3676 73.292C38.8417 72.857 38.2717 72.4736 37.6635 72.1523C38.97 70.824 40.7879 70 42.7982 70L43.1683 70.0098Z" fill="url(#paint0_linear_3_880)"/>
<path d="M34.375 92C34.3931 92.0251 35.8756 94.0809 35.876 95.4092L35.8682 95.5723C35.7914 96.3742 35.1525 97 34.376 97L34.2227 96.9922C33.5168 96.9162 32.9559 96.3208 32.8838 95.5723L32.876 95.4092C32.8755 93.9091 34.375 92 34.375 92ZM39.3896 92C39.4025 92.0178 40.8902 94.0785 40.8906 95.4092L40.8828 95.5723C40.806 96.3742 40.1671 97 39.3906 97L39.2373 96.9922C38.5316 96.9161 37.9706 96.3207 37.8984 95.5723L37.8906 95.4092C37.8902 93.9091 39.3896 92 39.3896 92ZM31.5 87C31.5002 87.0002 33.0006 89.0728 33.001 90.4092L32.9932 90.5723C32.9164 91.3741 32.2783 91.9998 31.502 92L31.3486 91.9922C30.6428 91.9162 30.0809 91.3208 30.0088 90.5723L30.001 90.4092C30.0005 88.9091 31.5 87 31.5 87ZM36.5 87C36.5002 87.0002 38.0006 89.0728 38.001 90.4092L37.9932 90.5723C37.9164 91.3741 37.2783 91.9998 36.502 92L36.3486 91.9922C35.6428 91.9162 35.0809 91.3208 35.0088 90.5723L35.001 90.4092C35.0005 88.9091 36.5 87 36.5 87ZM41.5 87C41.5002 87.0002 43.0006 89.0728 43.001 90.4092L42.9932 90.5723C42.9164 91.3741 42.2783 91.9998 41.502 92L41.3486 91.9922C40.6428 91.9162 40.0809 91.3208 40.0088 90.5723L40.001 90.4092C40.0005 88.9091 41.5 87 41.5 87ZM33.1543 70.0146C37.774 70.2575 41.612 73.5652 42.8193 78.0156C42.9616 78.0063 43.1055 78 43.25 78L43.5967 78.0088C47.1635 78.1963 50 81.2548 50 85L49.9912 85.3604C49.8407 88.4386 47.7718 90.9898 45 91.7598V89.6436C46.7311 88.9189 48 87.1516 48 85C48 82.1699 45.8057 80.0004 43.25 80C42.5274 80 41.8334 80.1736 41.21 80.4863C41.1745 79.8359 41.0677 79.2054 40.9053 78.5996C39.8939 74.7585 36.5189 72.0001 32.6084 72C27.9219 72 24 75.9605 24 81C24 84.2284 25.6111 87.0115 28 88.5967V90.9072C24.4501 89.1287 22 85.3622 22 81C22 74.9249 26.7496 70 32.6084 70L33.1543 70.0146Z" fill="url(#paint1_linear_3_880)"/>
<defs>
<linearGradient id="paint0_linear_3_880" x1="43.8319" y1="70" x2="43.8319" y2="81.8848" gradientUnits="userSpaceOnUse">
<stop stop-color="#EFC977"/>
<stop offset="1" stop-color="#E07256"/>
</linearGradient>
<linearGradient id="paint1_linear_3_880" x1="36" y1="70" x2="36" y2="97" gradientUnits="userSpaceOnUse">
<stop stop-color="#95B6F6"/>
<stop offset="1" stop-color="#5193DE"/>
</linearGradient>
</defs>
</svg>
