<svg width="72" height="120" viewBox="0 0 72 120" fill="none" xmlns="http://www.w3.org/2000/svg">
<rect x="0.5" y="0.5" width="71" height="119" rx="4.5" stroke="#7B61FF" stroke-dasharray="10 5"/>
<path fill-rule="evenodd" clip-rule="evenodd" d="M44.1092 33.312C45.6079 33.2633 47.0311 32.6543 48.0937 31.6095C48.6414 31.0636 49.0812 30.4121 49.3788 29.6886C49.7814 30.8494 49.9999 32.095 49.9999 33.3911C49.9999 38.4915 46.6158 42.809 41.9502 44.2606C41.9865 44.5035 42.0053 44.7522 42.0053 45.0053C42.0053 47.7681 39.7655 50.0079 37.0027 50.0079C36.9092 50.0079 36.8164 50.0053 36.7242 50.0002H29.505V49.9988L29.4987 49.9988C25.3544 49.9988 21.9948 46.671 21.9948 42.5659C21.9948 39.257 24.1776 36.4531 27.1948 35.49C27.0668 34.8097 26.9999 34.1081 26.9999 33.3911C26.9999 27.1 32.1487 22 38.4999 22C39.3972 22 40.2704 22.1018 41.1086 22.2943C40.4071 22.6595 39.7886 23.1591 39.2884 23.7586C38.3467 24.92 37.8848 26.3934 37.9982 27.8807C38.1134 29.3917 38.8134 30.8004 39.9521 31.8124C41.0908 32.8245 42.5802 33.3618 44.1092 33.312ZM29.1647 35.1403C29.2754 35.1355 29.3868 35.1331 29.4987 35.1331C32.7411 35.1331 35.5033 37.1701 36.5519 40.0227C36.7004 40.0094 36.8507 40.0026 37.0027 40.0026C38.8026 40.0026 40.3804 40.9532 41.2617 42.3797C44.9139 41.2852 47.624 38.0768 47.9639 34.2139C46.8234 34.8826 45.5222 35.2641 44.1756 35.3079C42.1269 35.3745 40.1315 34.6547 38.6058 33.2987C37.0801 31.9427 36.1422 30.0554 35.9879 28.0309C35.8861 26.696 36.1302 25.3696 36.6817 24.1715C32.2933 25.0113 28.9999 28.8333 28.9999 33.3911C28.9999 33.9885 29.0565 34.5732 29.1647 35.1403ZM29.5249 47.9987L29.4987 47.9988C26.441 47.9988 23.9948 45.5485 23.9948 42.5659C23.9948 39.5833 26.441 37.1331 29.4987 37.1331C31.8725 37.1331 33.8777 38.6098 34.656 40.6659L34.6611 40.6632C34.884 41.2556 35.0058 41.8968 35.0058 42.5661C35.0058 42.6331 35.0046 42.6998 35.0022 42.7661C35.5332 42.2913 36.2342 42.0026 37.0027 42.0026C38.661 42.0026 40.0053 43.347 40.0053 45.0053C40.0053 46.6636 38.661 48.0079 37.0027 48.0079H36.9999V48.0002H36.7871L36.7663 47.9987H32.9941L32.9953 48.0002H32.988L32.9868 47.9987H29.5249Z" fill="white"/>
<path fill-rule="evenodd" clip-rule="evenodd" d="M48.1114 78.5897C47.0472 79.6446 45.617 80.2598 44.1104 80.3088C42.5817 80.3586 41.0926 79.8215 39.9541 78.8097C38.8156 77.7979 38.1157 76.3896 38.0005 74.879C37.8874 73.3955 38.3468 71.926 39.284 70.7661C39.7853 70.1633 40.4061 69.6609 41.1106 69.2943C40.2725 69.1018 39.3993 69 38.5021 69C32.152 69 27.0043 74.0985 27.0043 80.3879C27.0043 81.7731 27.254 83.1006 27.7113 84.3285C28.2551 83.9409 28.8619 83.6344 29.5136 83.427C29.1833 82.473 29.0043 81.4504 29.0043 80.3879C29.0043 75.8319 32.2966 72.0111 36.684 71.1715C36.1328 72.3691 35.8889 73.6949 35.9906 75.0291C36.1449 77.0531 37.0826 78.9399 38.608 80.2955C40.1334 81.6511 42.1285 82.3707 44.1768 82.3041C45.523 82.2603 46.8238 81.8791 47.9639 81.2107C47.5999 85.3461 44.518 88.7314 40.4721 89.5739C40.8951 90.1027 41.1847 90.7408 41.2905 91.4386C46.2932 90.2043 50 85.7249 50 80.3879C50 79.0922 49.7815 77.8471 49.379 76.6867C49.0846 77.4023 48.651 78.0476 48.1114 78.5897Z" fill="url(#paint0_linear_3_295)"/>
<path fill-rule="evenodd" clip-rule="evenodd" d="M29.5025 94.9909L29.5232 94.9909V94.9914H32.9899C32.9903 94.9919 32.9906 94.9923 32.9909 94.9927H32.998C32.9977 94.9923 32.9974 94.9919 32.9971 94.9914H36.7739C36.7797 94.9919 36.7855 94.9923 36.7913 94.9927H37.0024V95.0002C37.0032 95.0002 37.0041 95.0002 37.005 95.0002C38.6629 95.0002 40.0066 93.6563 40.0066 91.999C40.0066 90.3416 38.6629 88.9978 37.005 88.9978C36.2367 88.9978 35.5358 89.2864 35.0049 89.761C35.0073 89.6945 35.0086 89.6277 35.0086 89.5606C35.0086 88.8914 34.8868 88.2504 34.664 87.6581L34.6585 87.661C33.8805 85.6057 31.8759 84.1294 29.5025 84.1294C26.4454 84.1294 24 86.5789 24 89.5602C24 92.5414 26.4454 94.9909 29.5025 94.9909ZM36.7289 96.9927C36.8203 96.9977 36.9123 97.0002 37.005 97.0002C39.7673 97.0002 42.0066 94.7611 42.0066 91.999C42.0066 89.2369 39.7673 86.9978 37.005 86.9978C36.8531 86.9978 36.7028 87.0045 36.5544 87.0178C35.5061 84.1659 32.7444 82.1294 29.5025 82.1294C25.359 82.1294 22 85.4563 22 89.5602C22 93.6641 25.359 96.9909 29.5025 96.9909C29.5046 96.9909 29.5067 96.9909 29.5088 96.9909V96.9927L36.7289 96.9927Z" fill="url(#paint1_linear_3_295)"/>
<defs>
<linearGradient id="paint0_linear_3_295" x1="38.5021" y1="69" x2="38.5021" y2="91.4386" gradientUnits="userSpaceOnUse">
<stop stop-color="#F5BD52"/>
<stop offset="1" stop-color="#F5DA79"/>
</linearGradient>
<linearGradient id="paint1_linear_3_295" x1="32.0033" y1="82.1294" x2="32.0033" y2="97.0002" gradientUnits="userSpaceOnUse">
<stop stop-color="#B2D4F7"/>
<stop offset="1" stop-color="#D9E2F3"/>
</linearGradient>
</defs>
</svg>
