<svg width="72" height="119" viewBox="0 0 72 119" fill="none" xmlns="http://www.w3.org/2000/svg">
<rect x="0.5" y="0.5" width="71" height="118" rx="4.5" stroke="#7B61FF" stroke-dasharray="10 5"/>
<path fill-rule="evenodd" clip-rule="evenodd" d="M50 37C50 40.6028 47.375 43.57 44 43.9572V41.937C46.2205 41.5615 48 39.5486 48 37C48 34.1696 45.8053 32 43.2493 32C42.5272 32 41.8339 32.1732 41.2108 32.4855C41.1791 31.9037 41.0937 31.3367 40.9599 30.7899L40.9569 30.7911C40.0091 26.85 36.5839 24 32.6083 24C27.9218 24 24 27.9605 24 33C24 37.0657 26.5526 40.4291 30 41.5772V43.665C25.4024 42.4598 22 38.1419 22 33C22 26.9249 26.7495 22 32.6083 22C34.6627 22 36.5808 22.6056 38.2055 23.654C39.452 22.6209 41.0525 22 42.798 22C46.7756 22 50.0001 25.2245 50.0001 29.2021C50.0001 30.6381 49.5798 31.9759 48.8556 33.0993C49.5783 34.2139 50 35.5559 50 37ZM47.4545 31.5237C47.8037 30.8249 48.0001 30.0364 48.0001 29.2021C48.0001 26.3291 45.671 24 42.798 24C41.6913 24 40.6653 24.3456 39.8221 24.9347C41.2318 26.2911 42.2853 28.04 42.821 30.0139C42.9626 30.0047 43.1054 30 43.2493 30C44.8393 30 46.301 30.57 47.4545 31.5237ZM34.0021 47.456C34.0022 47.7921 33.7442 48.0021 33.5021 48.0021C33.2599 48.0021 33.0018 47.7921 33.0017 47.456C33.0015 47.0277 33.1753 46.4437 33.4744 45.7938C33.5746 46.0045 33.6656 46.2136 33.7435 46.4168C33.9389 46.9263 34.0021 47.272 34.0021 47.456ZM33.5002 42C33.5002 42 32.9029 42.7302 32.2923 43.7572C31.654 44.8309 31.0013 46.229 31.0017 47.456C31.0021 48.8622 32.1218 50.0021 33.5027 50.0021C34.8835 50.0021 36.0025 48.8622 36.0021 47.456C36.0018 46.3379 35.318 44.8977 34.6655 43.7778C34.0699 42.7554 33.5002 42 33.5002 42ZM39.5021 45.0021C39.7442 45.0021 40.0022 44.7921 40.0021 44.456C40.0021 44.272 39.9389 43.9263 39.7435 43.4168C39.6656 43.2136 39.5746 43.0045 39.4744 42.7938C39.1753 43.4437 39.0015 44.0277 39.0017 44.456C39.0018 44.7921 39.2599 45.0021 39.5021 45.0021ZM38.2923 40.7572C38.9029 39.7302 39.5002 39 39.5002 39C39.5002 39 40.0699 39.7554 40.6655 40.7778C41.318 41.8977 42.0018 43.3379 42.0021 44.456C42.0025 45.8622 40.8835 47.0021 39.5027 47.0021C38.1218 47.0021 37.0021 45.8622 37.0017 44.456C37.0013 43.229 37.654 41.8309 38.2923 40.7572Z" fill="white"/>
<path d="M43.1683 70.0098C46.9738 70.2025 50.0004 73.3488 50.0004 77.2021L49.9906 77.5723C49.9074 79.2157 49.2719 80.7129 48.2679 81.8848C47.9538 81.2541 47.548 80.6776 47.0668 80.1729C47.6542 79.3304 48.0004 78.307 48.0004 77.2021C48.0004 74.3292 45.6711 72.0001 42.7982 72C41.4838 72 40.2833 72.4879 39.3676 73.292C38.8417 72.857 38.2717 72.4736 37.6635 72.1523C38.97 70.824 40.7879 70 42.7982 70L43.1683 70.0098Z" fill="url(#paint0_linear_3_669)"/>
<path d="M33.5 90C33.5 90 36.0013 93.3172 36.002 95.4561L35.9893 95.7168C35.8614 97.0003 34.7971 98.0017 33.5029 98.002C32.2086 98.0018 31.1433 97.0004 31.0146 95.7168L31.002 95.4561C31.0012 93.0636 33.4829 90.0209 33.5 90ZM33.4746 93.7979C33.1764 94.4465 33.0018 95.0284 33.002 95.4561C33.0021 95.792 33.2599 96.0018 33.502 96.002C33.7441 96.0019 34.0021 95.792 34.002 95.4561C34.0019 95.2721 33.9385 94.9264 33.7432 94.417C33.6657 94.215 33.5742 94.0074 33.4746 93.7979ZM39.5 87C39.5 87 42.0013 90.3172 42.002 92.4561L41.9893 92.7168C41.8614 94.0003 40.7971 95.0017 39.5029 95.002C38.2086 95.0018 37.1433 94.0004 37.0146 92.7168L37.002 92.4561C37.0012 90.0636 39.4829 87.0209 39.5 87ZM39.4746 90.7979C39.1764 91.4465 39.0018 92.0284 39.002 92.4561C39.0021 92.792 39.2599 93.0018 39.502 93.002C39.7441 93.0019 40.0021 92.792 40.002 92.4561C40.0019 92.2721 39.9385 91.9264 39.7432 91.417C39.6657 91.215 39.5742 91.0074 39.4746 90.7979ZM33.1543 70.0146C37.774 70.2575 41.612 73.5652 42.8193 78.0156C42.9616 78.0063 43.1055 78 43.25 78L43.5967 78.0088C47.1635 78.1963 50 81.2548 50 85L49.9912 85.3604C49.823 88.7989 47.2617 91.5807 44 91.9551V89.9346C46.2204 89.5593 48 87.5486 48 85C48 82.1699 45.8057 80.0004 43.25 80C42.5274 80 41.8334 80.1736 41.21 80.4863C41.1745 79.8359 41.0677 79.2054 40.9053 78.5996C39.8939 74.7585 36.5189 72.0001 32.6084 72C27.9219 72 24 75.9605 24 81C24 85.0655 26.5529 88.427 30 89.5752V91.6631C25.4026 90.4577 22 86.1417 22 81C22 74.9249 26.7496 70 32.6084 70L33.1543 70.0146Z" fill="url(#paint1_linear_3_669)"/>
<defs>
<linearGradient id="paint0_linear_3_669" x1="43.8319" y1="70" x2="43.8319" y2="81.8848" gradientUnits="userSpaceOnUse">
<stop stop-color="#EFC977"/>
<stop offset="1" stop-color="#E07256"/>
</linearGradient>
<linearGradient id="paint1_linear_3_669" x1="36" y1="70" x2="36" y2="98.0021" gradientUnits="userSpaceOnUse">
<stop stop-color="#95B6F6"/>
<stop offset="1" stop-color="#5193DE"/>
</linearGradient>
</defs>
</svg>
