<svg width="72" height="119" viewBox="0 0 72 119" fill="none" xmlns="http://www.w3.org/2000/svg">
<rect x="0.5" y="0.5" width="71" height="118" rx="4.5" stroke="#7B61FF" stroke-dasharray="10 5"/>
<path fill-rule="evenodd" clip-rule="evenodd" d="M50 37C50 40.6028 47.375 43.57 44 43.9572V41.937C46.2205 41.5615 48 39.5486 48 37C48 34.1696 45.8053 32 43.2493 32C42.5272 32 41.8339 32.1732 41.2108 32.4855C41.1791 31.9037 41.0937 31.3367 40.9599 30.7899L40.9569 30.7911C40.0091 26.85 36.5839 24 32.6083 24C27.9218 24 24 27.9605 24 33C24 37.0657 26.5526 40.4291 30 41.5772V43.665C25.4024 42.4598 22 38.1419 22 33C22 26.9249 26.7495 22 32.6083 22C35.4013 22 37.9422 23.1192 39.8366 24.9488C40.9587 22.7245 43.5197 21.5143 46.0199 22.1847C46.3224 22.2658 46.612 22.3713 46.8871 22.4983C45.8142 22.6724 44.8941 23.4638 44.6104 24.5846C44.4703 25.1384 44.505 25.6956 44.6798 26.1976L44.6881 26.2288C44.7697 26.5259 44.9137 26.8021 45.1106 27.0391C45.2227 27.174 45.3504 27.2943 45.4908 27.3978C45.813 27.6787 46.2044 27.8902 46.647 28.0024C48.0002 28.3454 49.3727 27.6444 49.9137 26.4062C50.0538 27.167 50.0311 27.9702 49.8176 28.7672C49.4797 30.0293 48.7198 31.0656 47.7306 31.7647C49.1228 33.047 50 34.9172 50 37ZM45.8297 30.5296C46.2261 30.378 46.5919 30.1526 46.906 29.8654C46.8252 29.8679 46.7442 29.8681 46.6632 29.866C46.0642 29.8503 45.4755 29.7067 44.9363 29.445C44.3972 29.1832 43.9202 28.8093 43.5371 28.3482C43.154 27.8872 42.8737 27.3496 42.7149 26.7714C42.5561 26.1932 42.5225 25.5877 42.6164 24.9955C42.6368 24.8665 42.6632 24.7388 42.6954 24.6128C42.0689 25.0518 41.5872 25.7054 41.3737 26.5031C41.3539 26.5769 41.3367 26.6508 41.3221 26.7247C41.9865 27.7148 42.4979 28.8234 42.821 30.0139C42.9626 30.0047 43.1054 30 43.2493 30C44.1632 30 45.0347 30.1883 45.8297 30.5296ZM34.0021 47.456C34.0022 47.792 33.7442 48.0021 33.5021 48.0021C33.2599 48.0021 33.0018 47.792 33.0017 47.456C33.0015 47.0277 33.1753 46.4437 33.4744 45.7937C33.5746 46.0045 33.6656 46.2136 33.7435 46.4167C33.9389 46.9262 34.0021 47.272 34.0021 47.456ZM33.5002 42C33.5002 42 32.9029 42.7302 32.2923 43.7572C31.654 44.8309 31.0013 46.229 31.0017 47.456C31.0021 48.8622 32.1218 50.0021 33.5027 50.0021C34.8835 50.0021 36.0025 48.8622 36.0021 47.456C36.0018 46.3379 35.318 44.8977 34.6655 43.7777C34.0699 42.7554 33.5002 42 33.5002 42ZM39.5021 45.0021C39.7442 45.0021 40.0022 44.792 40.0021 44.456C40.0021 44.272 39.9389 43.9262 39.7435 43.4167C39.6656 43.2136 39.5746 43.0045 39.4744 42.7937C39.1753 43.4437 39.0015 44.0277 39.0017 44.456C39.0018 44.792 39.2599 45.0021 39.5021 45.0021ZM38.2923 40.7572C38.9029 39.7302 39.5002 39 39.5002 39C39.5002 39 40.0699 39.7554 40.6655 40.7777C41.318 41.8977 42.0018 43.3379 42.0021 44.456C42.0025 45.8622 40.8835 47.0021 39.5027 47.0021C38.1218 47.0021 37.0021 45.8622 37.0017 44.456C37.0013 43.229 37.654 41.8309 38.2923 40.7572Z" fill="white"/>
<path fill-rule="evenodd" clip-rule="evenodd" d="M39.6022 73.4864C40.5603 70.9245 43.3253 69.4621 46.0201 70.1847C46.3227 70.2658 46.6123 70.3721 46.8873 70.4991C45.8147 70.6733 44.8948 71.4638 44.611 72.5841C44.4707 73.1381 44.5063 73.6952 44.6813 74.1974C44.6839 74.2076 44.6853 74.2184 44.6881 74.2286L44.7614 74.4464C44.8455 74.6607 44.9632 74.8624 45.111 75.0402L45.2672 75.2091C45.3441 75.2837 45.4271 75.3519 45.5143 75.4142C45.8324 75.6859 46.2152 75.8933 46.6481 76.003C48.0028 76.3458 49.3724 75.6397 49.9117 74.3986C50.0532 75.1614 50.032 75.9673 49.818 76.7667C49.3748 78.4218 48.2049 79.687 46.7448 80.3146C45.7182 79.4925 44.4168 78.9991 42.9996 78.9991C42.9327 78.9992 42.8658 79.0018 42.7994 79.004C42.7326 78.6738 42.6479 78.3499 42.5494 78.0323C42.8967 78.3052 43.3033 78.5143 43.7565 78.6359C44.9093 78.945 46.0827 78.6151 46.9039 77.8644C46.824 77.8669 46.7439 77.8684 46.6637 77.8663C46.1396 77.8526 45.6223 77.7412 45.1403 77.5382L44.9371 77.4454C44.3982 77.1838 43.9198 76.8096 43.5367 76.3488C43.2017 75.9454 42.9451 75.4818 42.7799 74.9855L42.7155 74.7716C42.5567 74.1935 42.523 73.5873 42.6168 72.9952C42.6373 72.866 42.6647 72.7377 42.6969 72.6114C42.0698 73.0504 41.5874 73.705 41.3737 74.503C41.297 74.7895 41.26 75.0772 41.2584 75.3605C40.7857 74.6684 40.2291 74.0387 39.6022 73.4864Z" fill="url(#paint0_linear_3_740)"/>
<path d="M33.5 90C33.5 90 36.0013 93.3172 36.002 95.4561L35.9893 95.7168C35.8614 97.0003 34.7971 98.0017 33.5029 98.002C32.2086 98.0018 31.1433 97.0004 31.0146 95.7168L31.002 95.4561C31.0012 93.0636 33.4829 90.0209 33.5 90ZM33.4746 93.7979C33.1764 94.4465 33.0018 95.0284 33.002 95.4561C33.0021 95.792 33.2599 96.0018 33.502 96.002C33.7441 96.0019 34.0021 95.792 34.002 95.4561C34.0019 95.2721 33.9385 94.9264 33.7432 94.417C33.6657 94.215 33.5742 94.0074 33.4746 93.7979ZM39.5 87C39.5 87 42.0013 90.3172 42.002 92.4561L41.9893 92.7168C41.8614 94.0003 40.7971 95.0017 39.5029 95.002C38.2086 95.0018 37.1433 94.0004 37.0146 92.7168L37.002 92.4561C37.0012 90.0636 39.4829 87.0209 39.5 87ZM39.4746 90.7979C39.1764 91.4465 39.0018 92.0284 39.002 92.4561C39.0021 92.792 39.2599 93.0018 39.502 93.002C39.7441 93.0019 40.0021 92.792 40.002 92.4561C40.0019 92.2721 39.9385 91.9264 39.7432 91.417C39.6657 91.215 39.5742 91.0074 39.4746 90.7979ZM33.1543 70.0146C37.774 70.2575 41.612 73.5652 42.8193 78.0156C42.9616 78.0063 43.1055 78 43.25 78L43.5967 78.0088C47.1635 78.1963 50 81.2548 50 85L49.9912 85.3604C49.823 88.7989 47.2617 91.5807 44 91.9551V89.9346C46.2204 89.5593 48 87.5486 48 85C48 82.1699 45.8057 80.0004 43.25 80C42.5274 80 41.8334 80.1736 41.21 80.4863C41.1745 79.8359 41.0677 79.2054 40.9053 78.5996C39.8939 74.7585 36.5189 72.0001 32.6084 72C27.9219 72 24 75.9605 24 81C24 85.0655 26.5529 88.427 30 89.5752V91.6631C25.4026 90.4577 22 86.1417 22 81C22 74.9249 26.7496 70 32.6084 70L33.1543 70.0146Z" fill="url(#paint1_linear_3_740)"/>
<defs>
<linearGradient id="paint0_linear_3_740" x1="44.8019" y1="70.0002" x2="44.8019" y2="80.3146" gradientUnits="userSpaceOnUse">
<stop stop-color="#F5BD52"/>
<stop offset="1" stop-color="#F5DA79"/>
</linearGradient>
<linearGradient id="paint1_linear_3_740" x1="36" y1="70" x2="36" y2="98.0021" gradientUnits="userSpaceOnUse">
<stop stop-color="#95B6F6"/>
<stop offset="1" stop-color="#5193DE"/>
</linearGradient>
</defs>
</svg>
