<svg width="72" height="119" viewBox="0 0 72 119" fill="none" xmlns="http://www.w3.org/2000/svg">
<rect x="0.5" y="0.5" width="71" height="118" rx="4.5" stroke="#7B61FF" stroke-dasharray="10 5"/>
<path d="M37.2549 42.7393C37.2599 42.781 37.7561 46.8718 36.6924 48.7148L36.5508 48.9346C35.798 49.9819 34.3756 50.3171 33.2549 49.6699C32.1341 49.0225 31.7126 47.6221 32.2431 46.4463L32.3623 46.2139C33.5563 44.145 37.218 42.7532 37.2549 42.7393ZM43.9736 41.1367C43.9736 41.1367 44.4803 45.2608 43.4111 47.1133L43.2695 47.332C42.5168 48.3796 41.0944 48.7146 39.9736 48.0674C38.8529 47.42 38.4314 46.0205 38.9619 44.8447L39.081 44.6123C40.277 42.5402 43.9483 41.1463 43.9736 41.1367ZM35.334 46.0146C34.7513 46.4272 34.3085 46.8444 34.0947 47.2148C33.9271 47.5057 34.0454 47.8164 34.2549 47.9375C34.4645 48.0584 34.793 48.0057 34.9609 47.7148C35.0529 47.5555 35.1712 47.2243 35.2568 46.6855C35.2908 46.4719 35.3153 46.2459 35.334 46.0146ZM42.0517 44.4131C41.4692 44.8256 41.0262 45.2419 40.8125 45.6123C40.6448 45.903 40.7634 46.2136 40.9726 46.335C41.1823 46.4561 41.5107 46.4033 41.6787 46.1123C41.7706 45.9529 41.889 45.6224 41.9746 45.084C42.0085 44.8703 42.0331 44.6444 42.0517 44.4131ZM33.1543 22.0146C35.7327 22.1502 38.067 23.2413 39.8369 24.9521C40.9581 22.7261 43.5193 21.5139 46.0205 22.1846C46.3229 22.2657 46.6127 22.372 46.8877 22.499C45.8151 22.6732 44.8952 23.4638 44.6113 24.584C44.4711 25.1379 44.5066 25.6951 44.6816 26.1973C44.6843 26.2075 44.6857 26.2183 44.6884 26.2285L44.7617 26.4463C44.8459 26.6605 44.9636 26.8623 45.1113 27.04L45.2675 27.209C45.3444 27.2836 45.4275 27.3518 45.5146 27.4141C45.8328 27.6857 46.2156 27.8932 46.6484 28.0029C48.003 28.3455 49.3728 27.6395 49.9121 26.3984C50.0535 27.1612 50.0323 27.9673 49.8183 28.7666C49.4801 30.0296 48.7171 31.0639 47.7265 31.7627C49.1205 33.0451 50 34.9157 50 37L49.9912 37.3604C49.8594 40.0554 48.2569 42.3468 46 43.3926V41.0713C47.1978 40.1769 48 38.71 48 37C48 34.1699 45.8057 32.0004 43.25 32C42.5274 32 41.8334 32.1736 41.2099 32.4863C41.1745 31.8359 41.0677 31.2054 40.9052 30.5996C39.8939 26.7585 36.5189 24.0001 32.6084 24C27.9219 24 24 27.9605 24 33C24 36.2284 25.6111 39.0115 28 40.5967V42.9072C24.45 41.1287 22 37.3622 22 33C22 26.9249 26.7496 22 32.6084 22L33.1543 22.0146ZM35.1162 36.0215C35.1162 36.0215 35.6226 40.1444 34.5537 41.9971L34.4121 42.2168C33.6594 43.2644 32.237 43.5995 31.1162 42.9521C29.9956 42.3048 29.5742 40.9052 30.1045 39.7295L30.2236 39.4971C31.4195 37.4249 35.0909 36.0311 35.1162 36.0215ZM41.7187 35.0039C41.7187 35.0039 42.2253 39.127 41.1562 40.9795L41.0156 41.1992C40.2629 42.2469 38.8396 42.5819 37.7187 41.9346C36.5982 41.2871 36.1774 39.8867 36.708 38.7109L36.8271 38.4795C38.0204 36.4119 41.6776 35.0195 41.7187 35.0039ZM33.1953 39.2979C32.6127 39.7104 32.1698 40.1267 31.956 40.4971C31.7881 40.788 31.9066 41.0985 32.1162 41.2197C32.3259 41.3408 32.6543 41.2881 32.8222 40.9971C32.9142 40.8376 33.0326 40.507 33.1181 39.9688C33.1521 39.7551 33.1767 39.5292 33.1953 39.2979ZM39.7978 38.2803C39.2152 38.6928 38.7723 39.1091 38.5586 39.4795C38.3908 39.7703 38.5093 40.0809 38.7187 40.2021C38.9284 40.3233 39.2568 40.2705 39.4248 39.9795C39.5167 39.8201 39.6351 39.4895 39.7207 38.9512C39.7546 38.7375 39.7792 38.5115 39.7978 38.2803ZM42.6972 24.6113C42.0702 25.0502 41.5878 25.7049 41.374 26.5029C41.3538 26.5784 41.3351 26.6539 41.3203 26.7295C41.9837 27.7192 42.4965 28.8259 42.8193 30.0156C42.9616 30.0063 43.1054 30 43.25 30L43.5966 30.0088C44.3829 30.0501 45.1334 30.2314 45.8261 30.5283C46.2229 30.3765 46.5898 30.1517 46.9043 29.8643C46.8244 29.8667 46.7441 29.8683 46.664 29.8662C46.14 29.8524 45.6225 29.741 45.1406 29.5381L44.9375 29.4453C44.3986 29.1837 43.9201 28.8094 43.5371 28.3486C43.202 27.9453 42.9455 27.4817 42.7802 26.9854L42.7158 26.7715C42.5571 26.1934 42.5234 25.5872 42.6172 24.9951C42.6377 24.866 42.665 24.7376 42.6972 24.6113Z" fill="white"/>
<path fill-rule="evenodd" clip-rule="evenodd" d="M28 42.9107C24.4494 41.1323 22 37.3628 22 33C22 26.9249 26.7495 22 32.6083 22C35.4013 22 37.9422 23.1192 39.8366 24.9488C40.9587 22.7245 43.5197 21.5143 46.0199 22.1847C46.3224 22.2658 46.612 22.3713 46.8871 22.4983C45.8142 22.6724 44.8941 23.4638 44.6104 24.5846C44.4703 25.1384 44.505 25.6956 44.6798 26.1976L44.6881 26.2288C44.7697 26.5259 44.9137 26.8021 45.1106 27.0391C45.2227 27.174 45.3504 27.2943 45.4908 27.3978C45.813 27.6787 46.2044 27.8902 46.647 28.0024C48.0002 28.3454 49.3727 27.6444 49.9137 26.4062C50.0538 27.167 50.0311 27.9702 49.8176 28.7672C49.4797 30.0293 48.7198 31.0656 47.7306 31.7647C49.1228 33.047 50 34.9172 50 37C50 39.8501 48.3573 42.3025 46 43.3944V41.0745C47.1984 40.1797 48 38.7105 48 37C48 34.1696 45.8053 32 43.2493 32C42.5272 32 41.8339 32.1732 41.2108 32.4855C41.1791 31.9037 41.0937 31.3367 40.9599 30.7899L40.9569 30.7911C40.0091 26.85 36.5839 24 32.6083 24C27.9218 24 24 27.9605 24 33C24 36.2291 25.6102 39.0152 28 40.6003V42.9107ZM45.8297 30.5296C46.2261 30.378 46.5919 30.1526 46.906 29.8654C46.8252 29.8679 46.7442 29.8681 46.6632 29.866C46.0642 29.8503 45.4755 29.7067 44.9363 29.445C44.3972 29.1832 43.9202 28.8093 43.5371 28.3482C43.154 27.8872 42.8737 27.3496 42.7149 26.7714C42.5561 26.1932 42.5225 25.5877 42.6164 24.9955C42.6368 24.8665 42.6632 24.7388 42.6954 24.6128C42.0689 25.0518 41.5872 25.7054 41.3737 26.5031C41.3539 26.5769 41.3367 26.6508 41.3221 26.7247C41.9865 27.7148 42.4979 28.8234 42.821 30.0139C42.9626 30.0047 43.1054 30 43.2493 30C44.1632 30 45.0347 30.1883 45.8297 30.5296ZM39.4251 39.9798C39.2571 40.2708 38.9287 40.3237 38.719 40.2026C38.5093 40.0815 38.3908 39.7705 38.5588 39.4794C38.7729 39.1084 39.2154 38.6896 39.7995 38.2764C39.7808 38.5091 39.7551 38.7356 39.721 38.9505C39.6353 39.4894 39.5171 39.8204 39.4251 39.9798ZM41.7192 35.0041C41.7192 35.0041 40.8367 35.3377 39.7944 35.9217C38.7047 36.5322 37.4402 37.4164 36.8269 38.4792C36.124 39.697 36.5235 41.2442 37.7192 41.9348C38.915 42.6254 40.4541 42.1979 41.157 40.9801C41.7159 40.0116 41.8441 38.4225 41.8392 37.1264C41.8347 35.9432 41.7192 35.0041 41.7192 35.0041ZM32.8223 40.9975C32.6543 41.2885 32.3258 41.3414 32.1161 41.2203C31.9064 41.0992 31.788 40.7882 31.9559 40.4971C32.17 40.1261 32.6126 39.7073 33.1966 39.2941C33.178 39.5268 33.1522 39.7533 33.1181 39.9682C33.0325 40.5071 32.9142 40.8381 32.8223 40.9975ZM35.1164 36.0218C35.1164 36.0218 34.2339 36.3554 33.1916 36.9394C32.1018 37.5499 30.8374 38.4341 30.224 39.4969C29.5211 40.7147 29.9207 42.2619 31.1164 42.9525C32.3121 43.6431 33.8513 43.2156 34.5541 41.9978C35.1131 41.0293 35.2413 39.4402 35.2363 38.1441C35.2318 36.9609 35.1164 36.0218 35.1164 36.0218ZM40.9732 46.3356C41.1829 46.4567 41.5113 46.4038 41.6793 46.1128C41.7713 45.9534 41.8895 45.6224 41.9752 45.0835C42.0093 44.8687 42.0351 44.6421 42.0537 44.4094C41.4696 44.8226 41.0271 45.2415 40.813 45.6125C40.645 45.9035 40.7635 46.2145 40.9732 46.3356ZM42.0486 42.0547C43.0909 41.4707 43.9734 41.1371 43.9734 41.1371C43.9734 41.1371 44.0889 42.0762 44.0934 43.2594C44.0983 44.5556 43.9701 46.1446 43.4112 47.1131C42.7083 48.331 41.1692 48.7584 39.9734 48.0678C38.7777 47.3772 38.3782 45.8301 39.0811 44.6122C39.6944 43.5494 40.9589 42.6653 42.0486 42.0547ZM34.961 47.7147C34.793 48.0057 34.4645 48.0586 34.2549 47.9375C34.0452 47.8164 33.9267 47.5054 34.0947 47.2144C34.3088 46.8433 34.7513 46.4245 35.3354 46.0113C35.3167 46.244 35.291 46.4706 35.2568 46.6854C35.1712 47.2243 35.053 47.5553 34.961 47.7147ZM37.2551 42.739C37.2551 42.739 36.3726 43.0726 35.3303 43.6566C34.2406 44.2671 32.9761 45.1513 32.3628 46.2141C31.6599 47.432 32.0594 48.9791 33.2551 49.6697C34.4509 50.3603 35.99 49.9329 36.6929 48.715C37.2518 47.7465 37.38 46.1574 37.3751 44.8613C37.3706 43.6781 37.2551 42.739 37.2551 42.739Z" fill="white"/>
<path fill-rule="evenodd" clip-rule="evenodd" d="M49.8176 76.7672C50.0311 75.9702 50.0538 75.167 49.9137 74.4062C49.3727 75.6444 48.0002 76.3454 46.647 76.0024C46.2044 75.8902 45.813 75.6787 45.4908 75.3978C45.3504 75.2943 45.2227 75.174 45.1106 75.0391C44.9137 74.8021 44.7697 74.5259 44.6881 74.2288L44.6798 74.1976C44.505 73.6956 44.4703 73.1384 44.6104 72.5846C44.8941 71.4638 45.8142 70.6724 46.8871 70.4983C46.612 70.3713 46.3224 70.2658 46.0199 70.1847C43.3257 69.4623 40.5609 70.9236 39.6022 73.4844C40.2285 74.0358 40.7854 74.6644 41.2579 75.3552C41.2599 75.0737 41.2974 74.7878 41.3737 74.5031C41.5872 73.7054 42.0689 73.0518 42.6954 72.6128C42.6632 72.7388 42.6368 72.8665 42.6164 72.9955C42.5225 73.5877 42.5561 74.1932 42.7149 74.7714C42.8737 75.3496 43.154 75.8872 43.5371 76.3482C43.9202 76.8093 44.3972 77.1832 44.9363 77.445C45.4755 77.7067 46.0642 77.8503 46.6632 77.866C46.7442 77.8681 46.8252 77.8679 46.906 77.8654C46.0848 78.6164 44.9101 78.9448 43.757 78.6356C43.3057 78.5146 42.9004 78.3074 42.554 78.0364C42.6516 78.3519 42.7341 78.6742 42.8006 79.0023C42.8668 79.0001 42.9332 78.999 43 78.999C44.4183 78.999 45.7218 79.4915 46.7488 80.315C48.2074 79.6871 49.3748 78.4211 49.8176 76.7672Z" fill="url(#paint0_linear_3_558)"/>
<path fill-rule="evenodd" clip-rule="evenodd" d="M22 81C22 85.3628 24.4494 89.1323 28 90.9107V88.6003C25.6102 87.0152 24 84.2291 24 81C24 75.9605 27.9218 72 32.6083 72C36.5839 72 40.0091 74.85 40.9569 78.7911L40.9599 78.7899C41.0937 79.3367 41.1791 79.9037 41.2108 80.4855C41.8339 80.1732 42.5272 80 43.2493 80C45.8053 80 48 82.1696 48 85C48 86.7105 47.1984 88.1797 46 89.0745V91.3944C48.3573 90.3025 50 87.8501 50 85C50 81.134 46.9776 78 43.2493 78C43.1054 78 42.9626 78.0047 42.821 78.0139C41.5661 73.3898 37.469 70 32.6083 70C26.7495 70 22 74.9249 22 81ZM38.7189 88.2026C38.9286 88.3237 39.2571 88.2708 39.4251 87.9798C39.5171 87.8204 39.6353 87.4894 39.7209 86.9505C39.7551 86.7356 39.7808 86.509 39.7994 86.2764C39.2154 86.6896 38.7729 87.1084 38.5587 87.4794C38.3908 87.7704 38.5092 88.0815 38.7189 88.2026ZM39.7944 83.9217C40.8367 83.3377 41.7192 83.0041 41.7192 83.0041C41.7192 83.0041 41.8346 83.9432 41.8392 85.1264C41.8441 86.4225 41.7159 88.0116 41.157 88.98C40.4541 90.1979 38.9149 90.6254 37.7192 89.9348C36.5235 89.2442 36.1239 87.697 36.8268 86.4792C37.4402 85.4164 38.7046 84.5322 39.7944 83.9217ZM32.1161 89.2204C32.3258 89.3415 32.6543 89.2886 32.8222 88.9976C32.9142 88.8382 33.0324 88.5072 33.1181 87.9683C33.1522 87.7535 33.178 87.5269 33.1966 87.2942C32.6125 87.7074 32.17 88.1262 31.9559 88.4972C31.7879 88.7883 31.9064 89.0993 32.1161 89.2204ZM33.1915 84.9395C34.2339 84.3555 35.1164 84.0219 35.1164 84.0219C35.1164 84.0219 35.2318 84.961 35.2363 86.1442C35.2412 87.4403 35.1131 89.0294 34.5541 89.9979C33.8512 91.2157 32.3121 91.6432 31.1164 90.9526C29.9206 90.262 29.5211 88.7149 30.224 87.497C30.8374 86.4342 32.1018 85.55 33.1915 84.9395ZM41.6793 94.1128C41.5113 94.4039 41.1828 94.4567 40.9731 94.3356C40.7635 94.2145 40.645 93.9035 40.8129 93.6125C41.0271 93.2415 41.4696 92.8227 42.0537 92.4094C42.035 92.6421 42.0093 92.8687 41.9751 93.0835C41.8895 93.6224 41.7713 93.9535 41.6793 94.1128ZM43.9734 89.1372C43.9734 89.1372 43.0909 89.4708 42.0486 90.0547C40.9589 90.6653 39.6944 91.5495 39.0811 92.6122C38.3782 93.8301 38.7777 95.3772 39.9734 96.0678C41.1691 96.7584 42.7083 96.331 43.4112 95.1131C43.9701 94.1447 44.0983 92.5556 44.0934 91.2594C44.0889 90.0762 43.9734 89.1372 43.9734 89.1372ZM34.2548 95.9374C34.4645 96.0585 34.793 96.0057 34.961 95.7146C35.0529 95.5553 35.1712 95.2243 35.2568 94.6854C35.291 94.4705 35.3167 94.2439 35.3353 94.0112C34.7513 94.4245 34.3088 94.8433 34.0946 95.2143C33.9267 95.5053 34.0451 95.8163 34.2548 95.9374ZM35.3303 91.6565C36.3726 91.0726 37.2551 90.739 37.2551 90.739C37.2551 90.739 37.3705 91.678 37.375 92.8612C37.38 94.1574 37.2518 95.7465 36.6929 96.7149C35.99 97.9328 34.4508 98.3602 33.2551 97.6696C32.0594 96.979 31.6598 95.4319 32.3627 94.214C32.9761 93.1513 34.2405 92.2671 35.3303 91.6565Z" fill="url(#paint1_linear_3_558)"/>
<defs>
<linearGradient id="paint0_linear_3_558" x1="44.8021" y1="70.0002" x2="44.8021" y2="80.315" gradientUnits="userSpaceOnUse">
<stop stop-color="#F5BD52"/>
<stop offset="1" stop-color="#F5DA79"/>
</linearGradient>
<linearGradient id="paint1_linear_3_558" x1="36" y1="70" x2="36" y2="97.9999" gradientUnits="userSpaceOnUse">
<stop stop-color="#95B6F6"/>
<stop offset="1" stop-color="#5193DE"/>
</linearGradient>
</defs>
</svg>
