<svg width="72" height="119" viewBox="0 0 72 119" fill="none" xmlns="http://www.w3.org/2000/svg">
<rect x="0.5" y="0.5" width="71" height="118" rx="4.5" stroke="#7B61FF" stroke-dasharray="10 5"/>
<path fill-rule="evenodd" clip-rule="evenodd" d="M22 33C22 38.1419 25.4024 42.4598 30 43.665V41.5772C26.5526 40.4291 24 37.0657 24 33C24 27.9605 27.9218 24 32.6083 24C36.5839 24 40.0091 26.85 40.9569 30.7911L40.9599 30.7899C41.0937 31.3367 41.1791 31.9037 41.2108 32.4855C41.8339 32.1732 42.5272 32 43.2493 32C45.8053 32 48 34.1696 48 37C48 39.8105 45.8359 41.9695 43.3029 41.9996V42H43V43.9953C43.0827 43.9984 43.1658 44 43.2493 44C46.9776 44 50 40.866 50 37C50 33.134 46.9776 30 43.2493 30C43.1054 30 42.9626 30.0047 42.821 30.0139C41.5661 25.3898 37.469 22 32.6083 22C26.7495 22 22 26.9249 22 33ZM37.168 36.4453L33.168 42.4453L32.1315 44H34H37.0442L33.856 48.4145L35.4773 49.5855L39.8107 43.5855L40.9558 42H39H35.8685L38.8321 37.5547L37.168 36.4453Z" fill="white"/>
<path fill-rule="evenodd" clip-rule="evenodd" d="M37.168 83.4453L38.8321 84.5547L35.8685 89H40.9558L35.4773 96.5855L33.856 95.4145L37.0442 91H32.1315L37.168 83.4453Z" fill="url(#paint0_linear_3_1034)"/>
<path fill-rule="evenodd" clip-rule="evenodd" d="M30 90.665C25.4024 89.4598 22 85.1419 22 80C22 73.9249 26.7495 69 32.6083 69C37.469 69 41.5661 72.3898 42.821 77.0139C42.9626 77.0047 43.1054 77 43.2493 77C46.9776 77 50 80.134 50 84C50 87.866 46.9776 91 43.2493 91C43.1658 91 43.0827 90.9984 43 90.9953V89H43.3029V88.9996C45.8359 88.9695 48 86.8105 48 84C48 81.1696 45.8053 79 43.2493 79C42.5272 79 41.8339 79.1732 41.2108 79.4855C41.1791 78.9037 41.0937 78.3367 40.9599 77.7899L40.9569 77.7911C40.0091 73.85 36.5839 71 32.6083 71C27.9218 71 24 74.9605 24 80C24 84.0657 26.5526 87.4291 30 88.5772V90.665Z" fill="url(#paint1_linear_3_1034)"/>
<defs>
<linearGradient id="paint0_linear_3_1034" x1="36.5436" y1="83.4453" x2="36.5436" y2="96.5855" gradientUnits="userSpaceOnUse">
<stop stop-color="#F5BD52"/>
<stop offset="1" stop-color="#F5DA79"/>
</linearGradient>
<linearGradient id="paint1_linear_3_1034" x1="36" y1="69" x2="36" y2="91" gradientUnits="userSpaceOnUse">
<stop stop-color="#95B6F6"/>
<stop offset="1" stop-color="#5193DE"/>
</linearGradient>
</defs>
</svg>
