<svg width="72" height="119" viewBox="0 0 72 119" fill="none" xmlns="http://www.w3.org/2000/svg">
<rect x="0.5" y="0.5" width="71" height="118" rx="4.5" stroke="#7B61FF" stroke-dasharray="10 5"/>
<path fill-rule="evenodd" clip-rule="evenodd" d="M33.9945 36.0012L28.881 38.992L24.8277 37.1314L23.9957 38.9618L26.7618 40.2315L25.2403 41.1214L26.2306 42.859L27.7518 41.9693L27.4543 45.0305L29.435 45.2156L29.871 40.7298L34.9869 37.7376V43.7528L31.367 46.3801L32.5418 47.9988L34.9869 46.2241V48H36.9869V46.224L39.4322 47.9988L40.607 46.3801L36.9869 43.7527V37.7514L42.1142 40.7503L42.5503 45.2367L44.531 45.0515L44.2334 41.9898L45.755 42.8798L46.7453 41.1422L45.2239 40.2523L47.9896 38.9828L47.1576 37.1525L43.1047 39.0128L37.9556 36.0012L43.0888 32.9988L47.1685 34.8715L48.0005 33.0412L45.208 31.7593L46.7473 30.859L45.757 29.1214L44.2472 30.0045L44.5419 26.9725L42.5612 26.7873L42.128 31.244L36.9869 34.251V28.2675L40.6302 25.6233L39.4554 24.0047L36.9869 25.7963V24H34.9869V25.7625L32.565 24.0047L31.3902 25.6233L34.9869 28.2337V34.2648L29.8868 31.2818L29.4478 26.7665L27.4671 26.9517L27.7675 30.0423L26.2286 29.1422L25.2383 30.8798L26.748 31.7628L24.0085 33.0204L24.8406 34.8507L28.8672 33.0023L33.9945 36.0012Z" fill="white"/>
<path fill-rule="evenodd" clip-rule="evenodd" d="M33.9945 83.0012L28.881 85.992L24.8277 84.1314L23.9957 85.9618L26.7618 87.2315L25.2403 88.1214L26.2306 89.859L27.7518 88.9693L27.4543 92.0305L29.435 92.2156L29.871 87.7298L34.9869 84.7376V90.7528L31.367 93.3801L32.5418 94.9988L34.9869 93.2241V95H36.9869V93.224L39.4322 94.9988L40.607 93.3801L36.9869 90.7527V84.7514L42.1142 87.7503L42.5503 92.2367L44.531 92.0515L44.2334 88.9898L45.755 89.8798L46.7453 88.1422L45.2239 87.2523L47.9896 85.9828L47.1576 84.1525L43.1047 86.0128L37.9556 83.0012L43.0888 79.9988L47.1685 81.8715L48.0005 80.0412L45.208 78.7593L46.7473 77.859L45.757 76.1214L44.2472 77.0045L44.5419 73.9725L42.5612 73.7873L42.128 78.244L36.9869 81.251V75.2675L40.6302 72.6233L39.4554 71.0047L36.9869 72.7963V71H34.9869V72.7625L32.565 71.0047L31.3902 72.6233L34.9869 75.2337V81.2648L29.8868 78.2818L29.4478 73.7665L27.4671 73.9517L27.7675 77.0423L26.2286 76.1422L25.2383 77.8798L26.748 78.7628L24.0085 80.0204L24.8406 81.8507L28.8672 80.0023L33.9945 83.0012Z" fill="url(#paint0_linear_3_1273)"/>
<defs>
<linearGradient id="paint0_linear_3_1273" x1="35.9981" y1="71" x2="35.9981" y2="95" gradientUnits="userSpaceOnUse">
<stop stop-color="#B2D4F7"/>
<stop offset="1" stop-color="#D9E2F3"/>
</linearGradient>
</defs>
</svg>
