<svg width="20" height="20" viewBox="0 0 20 20" fill="none" xmlns="http://www.w3.org/2000/svg">
<path d="M3.33333 12.4158C2.7142 11.7832 2.24714 11.0181 1.96753 10.1783C1.68792 9.33844 1.60309 8.44601 1.71946 7.56856C1.83584 6.69111 2.15038 5.85164 2.63924 5.11376C3.12811 4.37587 3.77848 3.75891 4.54111 3.3096C5.30373 2.8603 6.1586 2.59044 7.04097 2.52046C7.92334 2.45048 8.81006 2.58222 9.63397 2.90569C10.4579 3.22917 11.1974 3.7359 11.7964 4.38751C12.3955 5.03911 12.8384 5.8185 13.0917 6.66664H14.5833C15.3879 6.66655 16.1712 6.92524 16.8175 7.40451C17.4638 7.88377 17.9388 8.5582 18.1723 9.32815C18.4059 10.0981 18.3856 10.9228 18.1144 11.6803C17.8433 12.4378 17.3357 13.0881 16.6667 13.535" stroke="#0A0A0A" stroke-width="1.66667" stroke-linecap="round" stroke-linejoin="round"/>
<path d="M6.66667 15.8333V16.6666" stroke="#0A0A0A" stroke-width="1.66667" stroke-linecap="round" stroke-linejoin="round"/>
<path d="M6.66667 11.6667V12.5001" stroke="#0A0A0A" stroke-width="1.66667" stroke-linecap="round" stroke-linejoin="round"/>
<path d="M13.3333 15.8333V16.6666" stroke="#0A0A0A" stroke-width="1.66667" stroke-linecap="round" stroke-linejoin="round"/>
<path d="M13.3333 11.6667V12.5001" stroke="#0A0A0A" stroke-width="1.66667" stroke-linecap="round" stroke-linejoin="round"/>
<path d="M10 17.5V18.3333" stroke="#0A0A0A" stroke-width="1.66667" stroke-linecap="round" stroke-linejoin="round"/>
<path d="M10 13.3333V14.1666" stroke="#0A0A0A" stroke-width="1.66667" stroke-linecap="round" stroke-linejoin="round"/>
</svg>
