<svg width="128" height="128" viewBox="0 0 128 128" fill="none" xmlns="http://www.w3.org/2000/svg">
<path d="M93.3333 101.333H48C41.0766 101.332 34.2901 99.4046 28.3988 95.7678C22.5075 92.131 17.7436 86.9277 14.6393 80.7392C11.535 74.5508 10.2128 67.621 10.8202 60.7243C11.4277 53.8277 13.941 47.2357 18.0792 41.6852C22.2174 36.1347 27.8176 31.8442 34.2539 29.2932C40.6902 26.7423 47.709 26.0313 54.5261 27.2398C61.3432 28.4483 67.69 31.5286 72.8572 36.1365C78.0245 40.7445 81.8086 46.6985 83.7867 53.3333H93.3333C99.6985 53.3333 105.803 55.8619 110.304 60.3627C114.805 64.8636 117.333 70.9681 117.333 77.3333C117.333 83.6985 114.805 89.803 110.304 94.3039C105.803 98.8047 99.6985 101.333 93.3333 101.333Z" stroke="white" stroke-opacity="0.8" stroke-width="10.6667" stroke-linecap="round" stroke-linejoin="round"/>
</svg>
