<svg width="48" height="48" viewBox="0 0 48 48" fill="none" xmlns="http://www.w3.org/2000/svg">
<path d="M35 38H18C15.4037 37.9993 12.8588 37.2767 10.6496 35.9129C8.44032 34.5491 6.65384 32.5979 5.48974 30.2772C4.32564 27.9566 3.82979 25.3579 4.05758 22.7716C4.28538 20.1854 5.22786 17.7134 6.77969 15.632C8.33153 13.5505 10.4316 11.9416 12.8452 10.985C15.2588 10.0284 17.8909 9.76175 20.4473 10.2149C23.0037 10.6681 25.3838 11.8232 27.3215 13.5512C29.2592 15.2792 30.6782 17.512 31.42 20H35C37.3869 20 39.6761 20.9482 41.364 22.636C43.0518 24.3239 44 26.6131 44 29C44 31.387 43.0518 33.6761 41.364 35.364C39.6761 37.0518 37.3869 38 35 38Z" stroke="white" stroke-width="4" stroke-linecap="round" stroke-linejoin="round"/>
</svg>
