<svg width="32" height="32" viewBox="0 0 32 32" fill="none" xmlns="http://www.w3.org/2000/svg">
<path d="M23.3333 25.3333H12C10.2692 25.3329 8.57253 24.8511 7.09971 23.9419C5.62689 23.0327 4.4359 21.7319 3.65984 20.1848C2.88377 18.6377 2.5532 16.9052 2.70507 15.1811C2.85693 13.4569 3.48525 11.8089 4.51981 10.4213C5.55436 9.03364 6.9544 7.96102 8.56348 7.32328C10.1726 6.68553 11.9273 6.50779 13.6315 6.80991C15.3358 7.11203 16.9225 7.88211 18.2143 9.0341C19.5061 10.1861 20.4521 11.6746 20.9467 13.3333H23.3333C24.9246 13.3333 26.4508 13.9654 27.576 15.0907C28.7012 16.2159 29.3333 17.742 29.3333 19.3333C29.3333 20.9246 28.7012 22.4507 27.576 23.5759C26.4508 24.7012 24.9246 25.3333 23.3333 25.3333Z" stroke="#D1D5DC" stroke-width="2.66667" stroke-linecap="round" stroke-linejoin="round"/>
</svg>
