<svg width="20" height="20" viewBox="0 0 20 20" fill="none" xmlns="http://www.w3.org/2000/svg">
<path d="M10.6667 16.3333C10.878 16.4917 11.1239 16.5977 11.3841 16.6425C11.6444 16.6872 11.9116 16.6695 12.1636 16.5908C12.4157 16.512 12.6455 16.3745 12.834 16.1896C13.0225 16.0046 13.1643 15.7775 13.2478 15.527C13.3313 15.2764 13.3541 15.0096 13.3143 14.7486C13.2745 14.4875 13.1732 14.2396 13.0188 14.0254C12.8643 13.8112 12.6612 13.6367 12.4262 13.5163C12.1911 13.396 11.9308 13.3333 11.6667 13.3333H1.66669" stroke="#0A0A0A" stroke-width="1.66667" stroke-linecap="round" stroke-linejoin="round"/>
<path d="M14.5834 6.66659C14.7964 6.38249 15.0786 6.15758 15.403 6.0132C15.7275 5.86883 16.0834 5.80978 16.4371 5.84167C16.7908 5.87356 17.1305 5.99533 17.4238 6.19542C17.7172 6.3955 17.9546 6.66726 18.1134 6.98489C18.2722 7.30252 18.3472 7.65547 18.3312 8.01023C18.3153 8.36499 18.2089 8.70978 18.0222 9.01186C17.8355 9.31394 17.5747 9.56328 17.2645 9.73621C16.9544 9.90914 16.6051 9.99992 16.25 9.99992H1.66669" stroke="#0A0A0A" stroke-width="1.66667" stroke-linecap="round" stroke-linejoin="round"/>
<path d="M8.16669 3.66659C8.37796 3.50813 8.62385 3.40215 8.88412 3.35738C9.14438 3.31261 9.41156 3.33032 9.66363 3.40906C9.91571 3.4878 10.1455 3.62532 10.334 3.81028C10.5225 3.99523 10.6643 4.22234 10.7478 4.47287C10.8313 4.72341 10.8541 4.9902 10.8143 5.25127C10.7745 5.51233 10.6732 5.7602 10.5188 5.97444C10.3643 6.18867 10.1612 6.36315 9.92615 6.48349C9.69108 6.60383 9.43077 6.66659 9.16669 6.66659H1.66669" stroke="#0A0A0A" stroke-width="1.66667" stroke-linecap="round" stroke-linejoin="round"/>
</svg>
