<svg width="64" height="64" viewBox="0 0 64 64" fill="none" xmlns="http://www.w3.org/2000/svg">
<path d="M34.1333 52.2666C34.8094 52.7737 35.5963 53.1128 36.4291 53.2561C37.262 53.3994 38.1169 53.3427 38.9236 53.0907C39.7302 52.8387 40.4654 52.3987 41.0686 51.8068C41.6718 51.2149 42.1257 50.4882 42.393 49.6865C42.6602 48.8848 42.7331 48.0311 42.6057 47.1956C42.4782 46.3602 42.1541 45.5671 41.66 44.8815C41.1658 44.1959 40.5159 43.6376 39.7636 43.2525C39.0114 42.8674 38.1784 42.6666 37.3333 42.6666H5.33333" stroke="#8EC5FF" stroke-width="5.33333" stroke-linecap="round" stroke-linejoin="round"/>
<path d="M46.6667 21.3333C47.3485 20.4242 48.2514 19.7045 49.2896 19.2425C50.3278 18.7805 51.4669 18.5915 52.5987 18.6936C53.7305 18.7956 54.8174 19.1853 55.7562 19.8256C56.6951 20.4658 57.4546 21.3355 57.9629 22.3519C58.4711 23.3683 58.711 24.4977 58.6599 25.6329C58.6088 26.7682 58.2684 27.8715 57.671 28.8382C57.0736 29.8048 56.239 30.6027 55.2464 31.1561C54.2539 31.7095 53.1364 32 52 32H5.33333" stroke="#8EC5FF" stroke-width="5.33333" stroke-linecap="round" stroke-linejoin="round"/>
<path d="M26.1333 11.7333C26.8094 11.2262 27.5963 10.8871 28.4291 10.7438C29.262 10.6006 30.1169 10.6572 30.9236 10.9092C31.7302 11.1612 32.4654 11.6012 33.0686 12.1931C33.6718 12.785 34.1257 13.5117 34.393 14.3134C34.6602 15.1151 34.7331 15.9689 34.6057 16.8043C34.4782 17.6397 34.1541 18.4329 33.66 19.1184C33.1658 19.804 32.5159 20.3623 31.7636 20.7474C31.0114 21.1325 30.1784 21.3333 29.3333 21.3333H5.33333" stroke="#8EC5FF" stroke-width="5.33333" stroke-linecap="round" stroke-linejoin="round"/>
</svg>
